<?xml version="1.0" encoding="UTF-8"?>
<svg id="Layer_2" data-name="Layer 2" xmlns="http://www.w3.org/2000/svg" viewBox="0 0 116.42 48.8">
  <defs>
    <style>
      .cls-1 {
        fill: #0fbabc;
        stroke-width: 0px;
      }
    </style>
  </defs>
  <g id="Layer_1-2" data-name="Layer 1">
    <g>
      <path class="cls-1" d="m24.33,10.63v9.07c0,7.23-4.77,10.09-12,10.09h-4.43v18.47H0V.54h12.34c7.23,0,12,2.86,12,10.09Zm-7.91,1.23c0-3.41-1.77-4.36-4.36-4.36h-4.16v15.34h4.16c2.59,0,4.36-.95,4.36-4.36v-6.61Z"/>
      <path class="cls-1" d="m41.1,0h.55c7.23,0,12,2.86,12,10.09v28.63c0,7.23-4.77,10.09-12,10.09h-.55c-7.23,0-12-2.86-12-10.09V10.09c0-7.29,4.77-10.09,12-10.09Zm.27,41.85c2.59,0,4.36-.95,4.36-4.36V11.31c0-3.41-1.77-4.36-4.36-4.36s-4.36.95-4.36,4.36v26.17c0,3.41,1.77,4.36,4.36,4.36Z"/>
      <path class="cls-1" d="m60.19,48.26V.54h7.91l10.02,29.51V.54h7.23v47.71h-7.5l-10.43-31.01v31.01h-7.23Z"/>
      <path class="cls-1" d="m116.42,38.72c0,7.36-4.77,10.09-12,10.09h-.55c-7.23,0-12-2.66-12-10.09V10.09c0-7.09,4.77-10.09,12-10.09h.55c7.22,0,12,3,12,10.09v6.82h-7.91v-5.59c0-3.41-1.77-4.36-4.36-4.36s-4.36.95-4.36,4.36v26.17c0,3.41,1.77,4.36,4.36,4.36s4.36-.95,4.36-4.36v-7.09h-4.63v-6.68h12.54v15Z"/>
    </g>
  </g>
</svg>